<svg xmlns="http://www.w3.org/2000/svg" viewBox="0 0 64 64" role="img" aria-label="RentFlow">
  <defs>
    <linearGradient id="bg" x1="10%" y1="10%" x2="90%" y2="90%">
      <stop offset="0%" stop-color="#f0c45b" />
      <stop offset="55%" stop-color="#c99d2d" />
      <stop offset="100%" stop-color="#8f6912" />
    </linearGradient>
    <linearGradient id="shine" x1="0%" y1="0%" x2="100%" y2="100%">
      <stop offset="0%" stop-color="#fff3d6" stop-opacity="0.95" />
      <stop offset="100%" stop-color="#fff3d6" stop-opacity="0" />
    </linearGradient>
  </defs>

  <rect x="4" y="4" width="56" height="56" rx="18" fill="#11151d" />
  <rect x="6" y="6" width="52" height="52" rx="16" fill="url(#bg)" />
  <path d="M16 18c7-8 18-10 27-5l-3 5c-6-3-13-2-18 3-6 6-6 17 0 23 5 5 12 6 18 3l3 5c-9 5-20 3-27-5-8-8-8-21 0-29Z" fill="#11151d" />
  <path d="M29 20h7c6 0 11 5 11 11 0 5-3 9-8 10l7 7-5 5-10-10V20Zm7 16c3 0 5-2 5-5s-2-5-5-5h-1v10h1Z" fill="#11151d" />
  <path d="M14 12h36c4 0 8 2 10 6L40 38 14 12Z" fill="url(#shine)" opacity="0.55" />
</svg>
